<?xml version="1.0" encoding="UTF-8"?>
<svg width="523px" height="523px" viewBox="0 0 523 523" version="1.1" xmlns="http://www.w3.org/2000/svg" xmlns:xlink="http://www.w3.org/1999/xlink">
    <!-- Generator: Sketch 51 (57462) - http://www.bohemiancoding.com/sketch -->
    <title>core/scoutred-icon</title>
    <desc>Created with Sketch.</desc>
    <defs></defs>
    <g id="core/scoutred-icon" stroke="none" stroke-width="1" fill="none" fill-rule="evenodd">
        <path d="M261.062663,0 C116.895775,0 0,116.895775 0,261.062663 C0,405.229552 116.895775,522.125327 261.062663,522.125327 C405.229552,522.125327 522.125327,405.229552 522.125327,261.062663 C522.125327,116.895775 405.229552,0 261.062663,0 Z M261.062663,496.087581 C131.285056,496.087581 26.037746,390.840271 26.037746,261.062663 C26.037746,131.285056 131.285056,26.037746 261.062663,26.037746 C390.840271,26.037746 496.087581,131.285056 496.087581,261.062663 C496.087581,390.840271 390.840271,496.087581 261.062663,496.087581 Z" id="world" fill="#CC1717" fill-rule="nonzero"></path>
        <path d="M168.011982,257.362563 C156.774639,257.362563 147.592907,266.544294 147.592907,277.781637 L168.011982,309.301014 L188.431056,277.781637 C188.431056,266.544294 179.249325,257.362563 168.011982,257.362563 Z M168.011982,285.592961 C162.804433,285.592961 158.556169,281.344697 158.556169,276.137148 C158.556169,270.929599 162.804433,266.681335 168.011982,266.681335 C173.219531,266.681335 177.467795,270.929599 177.467795,276.137148 C177.467795,281.344697 173.219531,285.592961 168.011982,285.592961 Z" id="location" fill="#CC1717" fill-rule="nonzero"></path>
        <path d="M256.458642,101.39926 L464.157082,309.163973 C466.623816,298.748875 468.268305,288.059695 469.09055,277.233474 L454.969005,262.98758 L436.623793,244.629677 L454.97535,262.981234 L469.501672,248.454913 C468.816468,237.354611 467.30902,226.52839 464.979327,215.976251 L436.528412,244.427165 L275.036368,82.9201484 L301.626731,56.186715 C290.80051,54.1311034 279.837249,52.7606958 268.462865,52.3495735 L256.403277,64.4091611 L244.891853,52.8977365 C233.928591,53.7199811 223.239411,55.3644704 212.961354,57.8312042 L237.985358,82.8552088 L169.633578,151.133007 L123.06261,104.425065 C116.484653,110.180778 110.317818,116.347612 104.562106,122.925569 L151.155967,169.51943 L64.8070068,256.411987 L64.811422,256.416409 C61.3952133,261.485611 61.9463302,268.329727 66.4647726,272.84817 C70.9781894,277.361586 77.8121093,277.916498 82.8796117,274.512904 L82.8847656,274.518066 L169.587951,188.088454 L245.171875,263.672302 L106.891799,401.940573 C112.784552,408.381489 119.088428,414.411283 125.666384,420.029955 L175.671177,370.036564 L275.040822,469.501672 C286.004083,468.816468 296.830304,467.171979 307.245402,464.842286 L194.186769,351.646611 L263.666438,282.166942 L399.062717,417.563221 C405.640674,411.807508 411.807508,405.640674 417.563221,399.062717 L368.377425,349.858695 L436.605748,281.649668 L418.100174,263.138859 L349.72804,331.227537 L188.179203,169.678699 L256.458642,101.39926 L256.458642,101.39926 Z" id="streets" fill="#444444"></path>
    </g>
</svg>